<svg width="34" height="34" viewBox="0 0 34 34" fill="none" xmlns="http://www.w3.org/2000/svg">
<path d="M19.9374 16.9999L33.0624 3.89573C33.4547 3.50343 33.6751 2.97136 33.6751 2.41656C33.6751 1.86177 33.4547 1.3297 33.0624 0.937398C32.6701 0.545099 32.1381 0.324707 31.5833 0.324707C31.0285 0.324707 30.4964 0.545099 30.1041 0.937398L16.9999 14.0624L3.89576 0.937398C3.50346 0.545099 2.97139 0.324708 2.4166 0.324708C1.8618 0.324708 1.32973 0.545099 0.937429 0.937398C0.545129 1.3297 0.324738 1.86177 0.324738 2.41656C0.324738 2.97136 0.545129 3.50343 0.937429 3.89573L14.0624 16.9999L0.937429 30.1041C0.742161 30.2977 0.587174 30.5282 0.481405 30.782C0.375637 31.0359 0.321182 31.3082 0.321182 31.5832C0.321182 31.8583 0.375637 32.1306 0.481405 32.3844C0.587174 32.6383 0.742161 32.8687 0.937429 33.0624C1.1311 33.2577 1.36152 33.4127 1.61539 33.5184C1.86927 33.6242 2.14157 33.6786 2.4166 33.6786C2.69162 33.6786 2.96392 33.6242 3.2178 33.5184C3.47167 33.4127 3.70209 33.2577 3.89576 33.0624L16.9999 19.9374L30.1041 33.0624C30.2978 33.2577 30.5282 33.4127 30.7821 33.5184C31.0359 33.6242 31.3082 33.6786 31.5833 33.6786C31.8583 33.6786 32.1306 33.6242 32.3845 33.5184C32.6383 33.4127 32.8688 33.2577 33.0624 33.0624C33.2577 32.8687 33.4127 32.6383 33.5185 32.3844C33.6242 32.1306 33.6787 31.8583 33.6787 31.5832C33.6787 31.3082 33.6242 31.0359 33.5185 30.782C33.4127 30.5282 33.2577 30.2977 33.0624 30.1041L19.9374 16.9999Z" fill="white"/>
</svg>
