<svg width="107" height="40" viewBox="0 0 107 40" fill="none" xmlns="http://www.w3.org/2000/svg">
<g clip-path="url(#clip0)">
<path fill-rule="evenodd" clip-rule="evenodd" d="M48.325 23.1564L53.4209 12.0449L58.4754 23.1772L48.325 23.1564ZM50.5583 21.7252H56.2489L53.414 15.5022L50.5583 21.7252ZM60.93 32.0968H45.7805L47.7857 27.7338H58.9525L60.93 32.0968ZM71.6266 32.0968H62.5065L59.8997 26.2749H46.8868L44.2524 32.0691H35.1461L38.6517 24.325C40.8459 19.5448 43.04 14.7692 45.2342 9.99827L45.9257 8.56007L43.7615 5.24114L42.178 2.8764L64.6707 2.92481C64.159 3.71305 63.6404 4.49438 63.1219 5.28263L60.9507 8.59464L61.6007 10.0328C63.7718 14.8176 65.9453 19.6024 68.121 24.3872L71.6266 32.0968ZM64.2282 8.84356L68.7433 18.8003H78.7416L85.089 12.4806L106.849 12.529L87.1564 32.159H74.8003H73.2239L69.4347 23.8202L62.9213 9.4382L62.5964 8.74676L64.3388 6.09853C65.3345 4.57044 66.3371 3.04927 67.3397 1.52118L39.5506 1.4382C40.537 2.96399 41.5304 4.49208 42.5307 6.02247L44.2524 8.67762L43.9205 9.36906L37.3379 23.7234L33.5281 32.0207H31.9378H19.6024L0 12.3215L21.7597 12.3699L28.0795 18.7105H38.064L42.6275 8.78133L41.3276 6.8038L37.7528 1.30683V0L53.4486 0.0345722L69.1443 0.0691443V1.38289L65.535 6.8522L64.2282 8.84356Z" fill="#194395"/>
<path fill-rule="evenodd" clip-rule="evenodd" d="M46.4444 36.4252C42.1159 32.3734 36.9232 32.3665 32.5809 36.4252C28.5429 32.65 23.7512 32.3872 19.6025 35.6439V39.3501C21.3939 38.1299 23.4877 37.4287 25.6527 37.3241C27.9759 37.3241 30.2715 38.3959 32.5671 39.9378C34.8834 38.4028 37.1859 37.3449 39.4815 37.3518C41.7771 37.3587 44.1004 38.4235 46.396 39.9724C48.7054 38.4373 51.0079 37.3725 53.3104 37.3794C55.6129 37.3864 57.9292 38.4512 60.2248 40C62.5412 38.465 64.8437 37.4071 67.1393 37.4071C69.4349 37.4071 71.7581 38.4857 74.0537 40.0277C76.3631 38.4927 78.6656 37.4348 80.9681 37.4417C83.1354 37.5619 85.2271 38.2798 87.0114 39.516V35.7615C82.8627 32.484 78.0848 32.7191 74.033 36.4875C69.7045 32.4356 64.5187 32.4287 60.1695 36.4875C55.8411 32.4356 50.6553 32.4218 46.3407 36.4875" fill="#194395"/>
</g>
<defs>
<clipPath id="clip0">
<rect width="106.849" height="40" fill="white"/>
</clipPath>
</defs>
</svg>
